<?xml version="1.0" encoding="UTF-8" standalone="no"?>
<!DOCTYPE svg PUBLIC "-//W3C//DTD SVG 1.1//EN"
 "http://www.w3.org/Graphics/SVG/1.1/DTD/svg11.dtd">
<!-- Generated by graphviz version 2.40.1 (20161225.0304)
 -->
<!-- Title: Tree Pages: 1 -->
<svg width="815pt" height="475pt"
 viewBox="0.00 0.00 815.00 475.00" xmlns="http://www.w3.org/2000/svg" xmlns:xlink="http://www.w3.org/1999/xlink">
<g id="graph0" class="graph" transform="scale(1 1) rotate(0) translate(4 471)">
<title>Tree</title>
<polygon fill="#ffffff" stroke="transparent" points="-4,4 -4,-471 811,-471 811,4 -4,4"/>
<!-- 0 -->
<g id="node1" class="node">
<title>0</title>
<path fill="#fff8dc" stroke="#000000" d="M538.5,-467C538.5,-467 432.5,-467 432.5,-467 426.5,-467 420.5,-461 420.5,-455 420.5,-455 420.5,-387 420.5,-387 420.5,-381 426.5,-375 432.5,-375 432.5,-375 538.5,-375 538.5,-375 544.5,-375 550.5,-381 550.5,-387 550.5,-387 550.5,-455 550.5,-455 550.5,-461 544.5,-467 538.5,-467"/>
<text text-anchor="start" x="461" y="-452.8" font-family="Helvetica,sans-Serif" font-size="14.00" fill="#000000">node #0</text>
<text text-anchor="start" x="459.5" y="-438.8" font-family="Helvetica,sans-Serif" font-size="14.00" fill="#000000">X</text>
<text text-anchor="start" x="469.5" y="-438.8" font-family="Helvetica,sans-Serif" baseline-shift="sub" font-size="14.00" fill="#000000">3</text>
<text text-anchor="start" x="476.5" y="-438.8" font-family="Helvetica,sans-Serif" font-size="14.00" fill="#000000"> ≤ 2.5</text>
<text text-anchor="start" x="445.5" y="-424.8" font-family="Helvetica,sans-Serif" font-size="14.00" fill="#000000">entropy = 1.0</text>
<text text-anchor="start" x="428.5" y="-410.8" font-family="Helvetica,sans-Serif" font-size="14.00" fill="#000000">samples = 100.0%</text>
<text text-anchor="start" x="435" y="-396.8" font-family="Helvetica,sans-Serif" font-size="14.00" fill="#000000">value = [0.5, 0.5]</text>
<text text-anchor="start" x="431" y="-382.8" font-family="Helvetica,sans-Serif" font-size="14.00" fill="#000000">class = over $50K</text>
</g>
<!-- 1 -->
<g id="node2" class="node">
<title>1</title>
<path fill="#fff8dc" stroke="#000000" d="M465,-339C465,-339 342,-339 342,-339 336,-339 330,-333 330,-327 330,-327 330,-259 330,-259 330,-253 336,-247 342,-247 342,-247 465,-247 465,-247 471,-247 477,-253 477,-259 477,-259 477,-327 477,-327 477,-333 471,-339 465,-339"/>
<text text-anchor="start" x="379" y="-324.8" font-family="Helvetica,sans-Serif" font-size="14.00" fill="#000000">node #1</text>
<text text-anchor="start" x="373.5" y="-310.8" font-family="Helvetica,sans-Serif" font-size="14.00" fill="#000000">X</text>
<text text-anchor="start" x="383.5" y="-310.8" font-family="Helvetica,sans-Serif" baseline-shift="sub" font-size="14.00" fill="#000000">2</text>
<text text-anchor="start" x="390.5" y="-310.8" font-family="Helvetica,sans-Serif" font-size="14.00" fill="#000000"> ≤ 12.5</text>
<text text-anchor="start" x="356" y="-296.8" font-family="Helvetica,sans-Serif" font-size="14.00" fill="#000000">entropy = 0.933</text>
<text text-anchor="start" x="350.5" y="-282.8" font-family="Helvetica,sans-Serif" font-size="14.00" fill="#000000">samples = 59.8%</text>
<text text-anchor="start" x="338" y="-268.8" font-family="Helvetica,sans-Serif" font-size="14.00" fill="#000000">value = [0.349, 0.651]</text>
<text text-anchor="start" x="349" y="-254.8" font-family="Helvetica,sans-Serif" font-size="14.00" fill="#000000">class = over $50K</text>
</g>
<!-- 0&#45;&gt;1 -->
<g id="edge1" class="edge">
<title>0&#45;&gt;1</title>
<path fill="none" stroke="#4682b4" d="M455.8961,-374.7891C450.2643,-365.9979 444.3208,-356.7202 438.5389,-347.6949"/>
<polygon fill="#4682b4" stroke="#4682b4" points="441.4019,-345.6754 433.0604,-339.1431 435.5076,-349.4515 441.4019,-345.6754"/>
<text text-anchor="middle" x="427.7111" y="-359.8641" font-family="Helvetica,sans-Serif" font-size="14.00" fill="#000000">True</text>
</g>
<!-- 2 -->
<g id="node9" class="node">
<title>2</title>
<path fill="#fff8dc" stroke="#000000" d="M630,-339C630,-339 507,-339 507,-339 501,-339 495,-333 495,-327 495,-327 495,-259 495,-259 495,-253 501,-247 507,-247 507,-247 630,-247 630,-247 636,-247 642,-253 642,-259 642,-259 642,-327 642,-327 642,-333 636,-339 630,-339"/>
<text text-anchor="start" x="544" y="-324.8" font-family="Helvetica,sans-Serif" font-size="14.00" fill="#000000">node #2</text>
<text text-anchor="start" x="531" y="-310.8" font-family="Helvetica,sans-Serif" font-size="14.00" fill="#000000">X</text>
<text text-anchor="start" x="541" y="-310.8" font-family="Helvetica,sans-Serif" baseline-shift="sub" font-size="14.00" fill="#000000">8</text>
<text text-anchor="start" x="548" y="-310.8" font-family="Helvetica,sans-Serif" font-size="14.00" fill="#000000"> ≤ 4718.5</text>
<text text-anchor="start" x="521" y="-296.8" font-family="Helvetica,sans-Serif" font-size="14.00" fill="#000000">entropy = 0.445</text>
<text text-anchor="start" x="515.5" y="-282.8" font-family="Helvetica,sans-Serif" font-size="14.00" fill="#000000">samples = 40.2%</text>
<text text-anchor="start" x="503" y="-268.8" font-family="Helvetica,sans-Serif" font-size="14.00" fill="#000000">value = [0.907, 0.093]</text>
<text text-anchor="start" x="510" y="-254.8" font-family="Helvetica,sans-Serif" font-size="14.00" fill="#000000">class = under $50K</text>
</g>
<!-- 0&#45;&gt;2 -->
<g id="edge8" class="edge">
<title>0&#45;&gt;2</title>
<path fill="none" stroke="#4682b4" d="M515.4649,-374.7891C521.1654,-365.9979 527.1814,-356.7202 533.0338,-347.6949"/>
<polygon fill="#4682b4" stroke="#4682b4" points="536.075,-349.4378 538.5791,-339.1431 530.2017,-345.6293 536.075,-349.4378"/>
<text text-anchor="middle" x="543.7936" y="-359.8932" font-family="Helvetica,sans-Serif" font-size="14.00" fill="#000000">False</text>
</g>
<!-- 3 -->
<g id="node3" class="node">
<title>3</title>
<path fill="#fff8dc" stroke="#000000" d="M300,-211C300,-211 177,-211 177,-211 171,-211 165,-205 165,-199 165,-199 165,-131 165,-131 165,-125 171,-119 177,-119 177,-119 300,-119 300,-119 306,-119 312,-125 312,-131 312,-131 312,-199 312,-199 312,-205 306,-211 300,-211"/>
<text text-anchor="start" x="214" y="-196.8" font-family="Helvetica,sans-Serif" font-size="14.00" fill="#000000">node #3</text>
<text text-anchor="start" x="201" y="-182.8" font-family="Helvetica,sans-Serif" font-size="14.00" fill="#000000">X</text>
<text text-anchor="start" x="211" y="-182.8" font-family="Helvetica,sans-Serif" baseline-shift="sub" font-size="14.00" fill="#000000">8</text>
<text text-anchor="start" x="218" y="-182.8" font-family="Helvetica,sans-Serif" font-size="14.00" fill="#000000"> ≤ 4243.5</text>
<text text-anchor="start" x="191" y="-168.8" font-family="Helvetica,sans-Serif" font-size="14.00" fill="#000000">entropy = 0.988</text>
<text text-anchor="start" x="185.5" y="-154.8" font-family="Helvetica,sans-Serif" font-size="14.00" fill="#000000">samples = 43.2%</text>
<text text-anchor="start" x="173" y="-140.8" font-family="Helvetica,sans-Serif" font-size="14.00" fill="#000000">value = [0.565, 0.435]</text>
<text text-anchor="start" x="180" y="-126.8" font-family="Helvetica,sans-Serif" font-size="14.00" fill="#000000">class = under $50K</text>
</g>
<!-- 1&#45;&gt;3 -->
<g id="edge2" class="edge">
<title>1&#45;&gt;3</title>
<path fill="none" stroke="#4682b4" d="M343.9312,-246.7891C331.6642,-237.2728 318.6624,-227.1866 306.1337,-217.4674"/>
<polygon fill="#4682b4" stroke="#4682b4" points="308.0279,-214.5072 297.9813,-211.1431 303.7373,-220.038 308.0279,-214.5072"/>
</g>
<!-- 4 -->
<g id="node6" class="node">
<title>4</title>
<path fill="#fff8dc" stroke="#000000" d="M465,-211C465,-211 342,-211 342,-211 336,-211 330,-205 330,-199 330,-199 330,-131 330,-131 330,-125 336,-119 342,-119 342,-119 465,-119 465,-119 471,-119 477,-125 477,-131 477,-131 477,-199 477,-199 477,-205 471,-211 465,-211"/>
<text text-anchor="start" x="379" y="-196.8" font-family="Helvetica,sans-Serif" font-size="14.00" fill="#000000">node #4</text>
<text text-anchor="start" x="377.5" y="-182.8" font-family="Helvetica,sans-Serif" font-size="14.00" fill="#000000">X</text>
<text text-anchor="start" x="387.5" y="-182.8" font-family="Helvetica,sans-Serif" baseline-shift="sub" font-size="14.00" fill="#000000">3</text>
<text text-anchor="start" x="394.5" y="-182.8" font-family="Helvetica,sans-Serif" font-size="14.00" fill="#000000"> ≤ 1.0</text>
<text text-anchor="start" x="359.5" y="-168.8" font-family="Helvetica,sans-Serif" font-size="14.00" fill="#000000">entropy = 0.42</text>
<text text-anchor="start" x="350.5" y="-154.8" font-family="Helvetica,sans-Serif" font-size="14.00" fill="#000000">samples = 16.7%</text>
<text text-anchor="start" x="338" y="-140.8" font-family="Helvetica,sans-Serif" font-size="14.00" fill="#000000">value = [0.085, 0.915]</text>
<text text-anchor="start" x="349" y="-126.8" font-family="Helvetica,sans-Serif" font-size="14.00" fill="#000000">class = over $50K</text>
</g>
<!-- 1&#45;&gt;4 -->
<g id="edge5" class="edge">
<title>1&#45;&gt;4</title>
<path fill="none" stroke="#4682b4" d="M403.5,-246.7891C403.5,-238.5417 403.5,-229.8661 403.5,-221.3724"/>
<polygon fill="#4682b4" stroke="#4682b4" points="407.0001,-221.1431 403.5,-211.1431 400.0001,-221.1431 407.0001,-221.1431"/>
</g>
<!-- 7 -->
<g id="node4" class="node">
<title>7</title>
<path fill="#00ffff" stroke="#000000" d="M135,-83C135,-83 12,-83 12,-83 6,-83 0,-77 0,-71 0,-71 0,-12 0,-12 0,-6 6,0 12,0 12,0 135,0 135,0 141,0 147,-6 147,-12 147,-12 147,-71 147,-71 147,-77 141,-83 135,-83"/>
<text text-anchor="start" x="49" y="-67.8" font-family="Helvetica,sans-Serif" font-size="14.00" fill="#000000">node #7</text>
<text text-anchor="start" x="26" y="-52.8" font-family="Helvetica,sans-Serif" font-size="14.00" fill="#000000">entropy = 0.943</text>
<text text-anchor="start" x="20.5" y="-37.8" font-family="Helvetica,sans-Serif" font-size="14.00" fill="#000000">samples = 40.9%</text>
<text text-anchor="start" x="8" y="-22.8" font-family="Helvetica,sans-Serif" font-size="14.00" fill="#000000">value = [0.639, 0.361]</text>
<text text-anchor="start" x="15" y="-7.8" font-family="Helvetica,sans-Serif" font-size="14.00" fill="#000000">class = under $50K</text>
</g>
<!-- 3&#45;&gt;7 -->
<g id="edge3" class="edge">
<title>3&#45;&gt;7</title>
<path fill="none" stroke="#4682b4" d="M176.5906,-118.6618C163.7635,-109.0608 150.2268,-98.9289 137.3323,-89.2775"/>
<polygon fill="#4682b4" stroke="#4682b4" points="139.0685,-86.2052 128.9653,-83.015 134.8739,-91.8093 139.0685,-86.2052"/>
</g>
<!-- 8 -->
<g id="node5" class="node">
<title>8</title>
<path fill="#ffa500" stroke="#000000" d="M300,-83C300,-83 177,-83 177,-83 171,-83 165,-77 165,-71 165,-71 165,-12 165,-12 165,-6 171,0 177,0 177,0 300,0 300,0 306,0 312,-6 312,-12 312,-12 312,-71 312,-71 312,-77 306,-83 300,-83"/>
<text text-anchor="start" x="214" y="-67.8" font-family="Helvetica,sans-Serif" font-size="14.00" fill="#000000">node #8</text>
<text text-anchor="start" x="191" y="-52.8" font-family="Helvetica,sans-Serif" font-size="14.00" fill="#000000">entropy = 0.251</text>
<text text-anchor="start" x="189" y="-37.8" font-family="Helvetica,sans-Serif" font-size="14.00" fill="#000000">samples = 2.3%</text>
<text text-anchor="start" x="173" y="-22.8" font-family="Helvetica,sans-Serif" font-size="14.00" fill="#000000">value = [0.042, 0.958]</text>
<text text-anchor="start" x="184" y="-7.8" font-family="Helvetica,sans-Serif" font-size="14.00" fill="#000000">class = over $50K</text>
</g>
<!-- 3&#45;&gt;8 -->
<g id="edge4" class="edge">
<title>3&#45;&gt;8</title>
<path fill="none" stroke="#4682b4" d="M238.5,-118.6618C238.5,-110.3896 238.5,-101.7232 238.5,-93.3097"/>
<polygon fill="#4682b4" stroke="#4682b4" points="242.0001,-93.2159 238.5,-83.2159 235.0001,-93.216 242.0001,-93.2159"/>
</g>
<!-- 9 -->
<g id="node7" class="node">
<title>9</title>
<path fill="#00ffff" stroke="#000000" d="M465,-83C465,-83 342,-83 342,-83 336,-83 330,-77 330,-71 330,-71 330,-12 330,-12 330,-6 336,0 342,0 342,0 465,0 465,0 471,0 477,-6 477,-12 477,-12 477,-71 477,-71 477,-77 471,-83 465,-83"/>
<text text-anchor="start" x="379" y="-67.8" font-family="Helvetica,sans-Serif" font-size="14.00" fill="#000000">node #9</text>
<text text-anchor="start" x="356" y="-52.8" font-family="Helvetica,sans-Serif" font-size="14.00" fill="#000000">entropy = 0.978</text>
<text text-anchor="start" x="354" y="-37.8" font-family="Helvetica,sans-Serif" font-size="14.00" fill="#000000">samples = 2.7%</text>
<text text-anchor="start" x="338" y="-22.8" font-family="Helvetica,sans-Serif" font-size="14.00" fill="#000000">value = [0.587, 0.413]</text>
<text text-anchor="start" x="345" y="-7.8" font-family="Helvetica,sans-Serif" font-size="14.00" fill="#000000">class = under $50K</text>
</g>
<!-- 4&#45;&gt;9 -->
<g id="edge6" class="edge">
<title>4&#45;&gt;9</title>
<path fill="none" stroke="#4682b4" d="M403.5,-118.6618C403.5,-110.3896 403.5,-101.7232 403.5,-93.3097"/>
<polygon fill="#4682b4" stroke="#4682b4" points="407.0001,-93.2159 403.5,-83.2159 400.0001,-93.216 407.0001,-93.2159"/>
</g>
<!-- 10 -->
<g id="node8" class="node">
<title>10</title>
<path fill="#ffa500" stroke="#000000" d="M630,-83C630,-83 507,-83 507,-83 501,-83 495,-77 495,-71 495,-71 495,-12 495,-12 495,-6 501,0 507,0 507,0 630,0 630,0 636,0 642,-6 642,-12 642,-12 642,-71 642,-71 642,-77 636,-83 630,-83"/>
<text text-anchor="start" x="540" y="-67.8" font-family="Helvetica,sans-Serif" font-size="14.00" fill="#000000">node #10</text>
<text text-anchor="start" x="521" y="-52.8" font-family="Helvetica,sans-Serif" font-size="14.00" fill="#000000">entropy = 0.263</text>
<text text-anchor="start" x="515.5" y="-37.8" font-family="Helvetica,sans-Serif" font-size="14.00" fill="#000000">samples = 13.9%</text>
<text text-anchor="start" x="503" y="-22.8" font-family="Helvetica,sans-Serif" font-size="14.00" fill="#000000">value = [0.045, 0.955]</text>
<text text-anchor="start" x="514" y="-7.8" font-family="Helvetica,sans-Serif" font-size="14.00" fill="#000000">class = over $50K</text>
</g>
<!-- 4&#45;&gt;10 -->
<g id="edge7" class="edge">
<title>4&#45;&gt;10</title>
<path fill="none" stroke="#4682b4" d="M465.4094,-118.6618C478.2365,-109.0608 491.7732,-98.9289 504.6677,-89.2775"/>
<polygon fill="#4682b4" stroke="#4682b4" points="507.1261,-91.8093 513.0347,-83.015 502.9315,-86.2052 507.1261,-91.8093"/>
</g>
<!-- 5 -->
<g id="node10" class="node">
<title>5</title>
<path fill="#00ffff" stroke="#000000" d="M630,-206.5C630,-206.5 507,-206.5 507,-206.5 501,-206.5 495,-200.5 495,-194.5 495,-194.5 495,-135.5 495,-135.5 495,-129.5 501,-123.5 507,-123.5 507,-123.5 630,-123.5 630,-123.5 636,-123.5 642,-129.5 642,-135.5 642,-135.5 642,-194.5 642,-194.5 642,-200.5 636,-206.5 630,-206.5"/>
<text text-anchor="start" x="544" y="-191.3" font-family="Helvetica,sans-Serif" font-size="14.00" fill="#000000">node #5</text>
<text text-anchor="start" x="521" y="-176.3" font-family="Helvetica,sans-Serif" font-size="14.00" fill="#000000">entropy = 0.238</text>
<text text-anchor="start" x="515.5" y="-161.3" font-family="Helvetica,sans-Serif" font-size="14.00" fill="#000000">samples = 39.4%</text>
<text text-anchor="start" x="503" y="-146.3" font-family="Helvetica,sans-Serif" font-size="14.00" fill="#000000">value = [0.961, 0.039]</text>
<text text-anchor="start" x="510" y="-131.3" font-family="Helvetica,sans-Serif" font-size="14.00" fill="#000000">class = under $50K</text>
</g>
<!-- 2&#45;&gt;5 -->
<g id="edge9" class="edge">
<title>2&#45;&gt;5</title>
<path fill="none" stroke="#4682b4" d="M568.5,-246.7891C568.5,-237.1162 568.5,-226.8544 568.5,-216.9877"/>
<polygon fill="#4682b4" stroke="#4682b4" points="572.0001,-216.8898 568.5,-206.8898 565.0001,-216.8899 572.0001,-216.8898"/>
</g>
<!-- 6 -->
<g id="node11" class="node">
<title>6</title>
<path fill="#ffa500" stroke="#000000" d="M795,-206.5C795,-206.5 672,-206.5 672,-206.5 666,-206.5 660,-200.5 660,-194.5 660,-194.5 660,-135.5 660,-135.5 660,-129.5 666,-123.5 672,-123.5 672,-123.5 795,-123.5 795,-123.5 801,-123.5 807,-129.5 807,-135.5 807,-135.5 807,-194.5 807,-194.5 807,-200.5 801,-206.5 795,-206.5"/>
<text text-anchor="start" x="709" y="-191.3" font-family="Helvetica,sans-Serif" font-size="14.00" fill="#000000">node #6</text>
<text text-anchor="start" x="693.5" y="-176.3" font-family="Helvetica,sans-Serif" font-size="14.00" fill="#000000">entropy = 0.3</text>
<text text-anchor="start" x="684" y="-161.3" font-family="Helvetica,sans-Serif" font-size="14.00" fill="#000000">samples = 0.8%</text>
<text text-anchor="start" x="668" y="-146.3" font-family="Helvetica,sans-Serif" font-size="14.00" fill="#000000">value = [0.053, 0.947]</text>
<text text-anchor="start" x="679" y="-131.3" font-family="Helvetica,sans-Serif" font-size="14.00" fill="#000000">class = over $50K</text>
</g>
<!-- 2&#45;&gt;6 -->
<g id="edge10" class="edge">
<title>2&#45;&gt;6</title>
<path fill="none" stroke="#4682b4" d="M628.0688,-246.7891C642.1899,-235.8345 657.2847,-224.1246 671.5107,-213.0887"/>
<polygon fill="#4682b4" stroke="#4682b4" points="674.0165,-215.5745 679.7724,-206.6796 669.7258,-210.0436 674.0165,-215.5745"/>
</g>
</g>
</svg>
